<svg id="visual" viewBox="0 0 900 600" width="900" height="600" xmlns="http://www.w3.org/2000/svg" xmlns:xlink="http://www.w3.org/1999/xlink" version="1.1"><rect x="0" y="0" width="900" height="600" fill="#ffffff"></rect><g fill="none" stroke="#eae9ff" stroke-width="4"><path d="M0 -191.6L43 -59.2L182.2 -59.2L69.6 22.6L112.6 155L0 73.2L-112.6 155L-69.6 22.6L-182.2 -59.2L-43 -59.2Z" transform="translate(138 508)"></path><path d="M0 -143.5L32.2 -44.3L136.4 -44.3L52.1 16.9L84.3 116.1L0 54.8L-84.3 116.1L-52.1 16.9L-136.4 -44.3L-32.2 -44.3Z" transform="translate(869 41)"></path><path d="M0 -184L41.3 -56.9L175 -56.9L66.9 21.7L108.2 148.9L0 70.3L-108.2 148.9L-66.9 21.7L-175 -56.9L-41.3 -56.9Z" transform="translate(880 538)"></path><path d="M0 -173.7L39 -53.7L165.2 -53.7L63.1 20.5L102.1 140.5L0 66.3L-102.1 140.5L-63.1 20.5L-165.2 -53.7L-39 -53.7Z" transform="translate(68 48)"></path><path d="M0 -166.1L37.3 -51.3L158 -51.3L60.3 19.6L97.6 134.4L0 63.4L-97.6 134.4L-60.3 19.6L-158 -51.3L-37.3 -51.3Z" transform="translate(521 319)"></path></g></svg>